<svg xmlns="http://www.w3.org/2000/svg" xmlns:xlink="http://www.w3.org/1999/xlink" width="111" zoomAndPan="magnify" viewBox="0 0 83.25 23.25" height="31" preserveAspectRatio="xMidYMid meet" version="1.0"><defs><g/><clipPath id="cd025b0e50"><path d="M 0.9375 0 L 81.585938 0 L 81.585938 22.523438 L 0.9375 22.523438 Z M 0.9375 0 " clip-rule="nonzero"/></clipPath><clipPath id="50c9ac99fb"><path d="M 70 3 L 77 3 L 77 21 L 70 21 Z M 70 3 " clip-rule="nonzero"/></clipPath><clipPath id="a75387b043"><path d="M 67.257812 6.621094 L 74.429688 3.09375 L 81.484375 17.433594 L 74.3125 20.964844 Z M 67.257812 6.621094 " clip-rule="nonzero"/></clipPath><clipPath id="dcfea15986"><path d="M 67.257812 6.621094 L 74.429688 3.09375 L 81.484375 17.433594 L 74.3125 20.964844 Z M 67.257812 6.621094 " clip-rule="nonzero"/></clipPath><clipPath id="8cb392d869"><path d="M 70 4 L 75 4 L 75 21 L 70 21 Z M 70 4 " clip-rule="nonzero"/></clipPath><clipPath id="90c32aeecd"><path d="M 67.257812 6.621094 L 74.429688 3.09375 L 81.484375 17.433594 L 74.3125 20.964844 Z M 67.257812 6.621094 " clip-rule="nonzero"/></clipPath><clipPath id="5d98ae65aa"><path d="M 67.257812 6.621094 L 74.429688 3.09375 L 81.484375 17.433594 L 74.3125 20.964844 Z M 67.257812 6.621094 " clip-rule="nonzero"/></clipPath><clipPath id="79f78dabfc"><path d="M 12.578125 4.964844 L 16.9375 4.964844 L 16.9375 14.953125 L 12.578125 14.953125 Z M 12.578125 4.964844 " clip-rule="nonzero"/></clipPath></defs><g clip-path="url(#cd025b0e50)"></g><g fill="#E94560" fill-opacity="1"><g transform="translate(4.848549, 14.772993)"><g><path d="M 4.3125 0.046875 C 4.101562 0.015625 3.5625 0 2.6875 0 L 2.46875 0 L 2.46875 -7.328125 L 1.15625 -7.328125 C 0.769531 -7.328125 0.539062 -7.304688 0.46875 -7.265625 C 0.394531 -7.222656 0.335938 -7.1875 0.296875 -7.15625 L 0.28125 -7.171875 L 0.28125 -8.859375 L 0.296875 -8.875 C 0.441406 -8.832031 0.835938 -8.8125 1.484375 -8.8125 L 5.640625 -8.8125 C 6.023438 -8.8125 6.253906 -8.828125 6.328125 -8.859375 C 6.398438 -8.898438 6.453125 -8.9375 6.484375 -8.96875 L 6.515625 -8.96875 L 6.515625 -7.265625 L 6.484375 -7.25 C 6.335938 -7.300781 5.945312 -7.328125 5.3125 -7.328125 L 4.3125 -7.328125 Z M 4.3125 0.046875 "/></g></g></g><g fill="#E94560" fill-opacity="1"><g transform="translate(18.136516, 14.77013)"><g><path d="M 6.390625 -0.640625 C 5.890625 -0.148438 5.113281 0.09375 4.0625 0.09375 C 3.03125 0.09375 2.191406 -0.210938 1.546875 -0.828125 C 0.890625 -1.460938 0.5625 -2.300781 0.5625 -3.34375 C 0.5625 -4.414062 0.882812 -5.289062 1.53125 -5.96875 C 2.21875 -6.6875 3.140625 -7.046875 4.296875 -7.046875 C 5.109375 -7.046875 5.789062 -6.867188 6.34375 -6.515625 L 6.078125 -4.828125 L 6.046875 -4.828125 C 5.828125 -5.085938 5.601562 -5.253906 5.375 -5.328125 C 4.988281 -5.460938 4.601562 -5.53125 4.21875 -5.53125 C 3.84375 -5.53125 3.546875 -5.476562 3.328125 -5.375 C 3.117188 -5.28125 2.9375 -5.148438 2.78125 -4.984375 C 2.46875 -4.628906 2.3125 -4.160156 2.3125 -3.578125 C 2.3125 -2.546875 2.671875 -1.867188 3.390625 -1.546875 C 3.640625 -1.441406 3.898438 -1.390625 4.171875 -1.390625 C 4.453125 -1.390625 4.691406 -1.410156 4.890625 -1.453125 C 5.097656 -1.503906 5.285156 -1.570312 5.453125 -1.65625 C 5.816406 -1.832031 6.0625 -2.039062 6.1875 -2.28125 L 6.234375 -2.265625 Z M 6.390625 -0.640625 "/></g></g></g><g fill="#E94560" fill-opacity="1"><g transform="translate(24.927219, 14.77013)"><g><path d="M 2.6875 -0.875 C 2.6875 -0.488281 2.703125 -0.195312 2.734375 0 L 1.078125 0 L 1.078125 -9.46875 L 2.6875 -9.46875 L 2.6875 -3.671875 L 5.71875 -6.921875 L 7.6875 -6.921875 L 5.078125 -4.171875 L 6.5625 -2.140625 C 6.882812 -1.628906 7.128906 -1.253906 7.296875 -1.015625 L 7.734375 -0.390625 C 7.867188 -0.222656 7.976562 -0.09375 8.0625 0 L 7.015625 0 C 6.628906 0 6.296875 0.03125 6.015625 0.09375 L 3.953125 -2.921875 L 2.6875 -1.578125 Z M 2.6875 -0.875 "/></g></g></g><g fill="#E94560" fill-opacity="1"><g transform="translate(32.823231, 14.77013)"><g><path d="M 0.640625 -3.40625 C 0.640625 -3.914062 0.726562 -4.390625 0.90625 -4.828125 C 1.082031 -5.273438 1.332031 -5.664062 1.65625 -6 C 2.34375 -6.695312 3.242188 -7.046875 4.359375 -7.046875 C 5.296875 -7.046875 6.050781 -6.738281 6.625 -6.125 C 7.1875 -5.519531 7.46875 -4.765625 7.46875 -3.859375 C 7.46875 -3.503906 7.441406 -3.265625 7.390625 -3.140625 C 6.941406 -3.015625 6.039062 -2.953125 4.6875 -2.953125 L 2.359375 -2.953125 C 2.472656 -2.484375 2.738281 -2.113281 3.15625 -1.84375 C 3.570312 -1.582031 4.117188 -1.453125 4.796875 -1.453125 C 5.492188 -1.453125 6.097656 -1.578125 6.609375 -1.828125 C 6.734375 -1.898438 6.832031 -1.960938 6.90625 -2.015625 C 6.894531 -1.828125 6.882812 -1.640625 6.875 -1.453125 L 6.796875 -0.421875 C 6.460938 -0.191406 5.921875 -0.03125 5.171875 0.0625 C 4.941406 0.0820312 4.726562 0.09375 4.53125 0.09375 C 3.40625 0.09375 2.476562 -0.226562 1.75 -0.875 C 1.007812 -1.539062 0.640625 -2.382812 0.640625 -3.40625 Z M 5.703125 -4.234375 C 5.523438 -5.179688 5.007812 -5.65625 4.15625 -5.65625 C 3.476562 -5.65625 2.96875 -5.367188 2.625 -4.796875 C 2.519531 -4.617188 2.4375 -4.425781 2.375 -4.21875 C 2.476562 -4.207031 2.609375 -4.203125 2.765625 -4.203125 L 3.265625 -4.203125 C 3.421875 -4.191406 3.578125 -4.1875 3.734375 -4.1875 L 4.109375 -4.1875 C 4.328125 -4.1875 4.546875 -4.191406 4.765625 -4.203125 L 5.3125 -4.21875 C 5.457031 -4.21875 5.585938 -4.222656 5.703125 -4.234375 Z M 5.703125 -4.234375 "/></g></g></g><g fill="#E94560" fill-opacity="1"><g transform="translate(40.745718, 14.77013)"><g><path d="M 4.046875 -1.453125 C 4.617188 -1.453125 5.007812 -1.601562 5.21875 -1.90625 L 5.265625 -1.90625 L 5.296875 -0.359375 C 5.078125 -0.148438 4.675781 -0.0078125 4.09375 0.0625 C 3.925781 0.0820312 3.722656 0.09375 3.484375 0.09375 C 3.253906 0.09375 3 0.0507812 2.71875 -0.03125 C 2.445312 -0.125 2.210938 -0.269531 2.015625 -0.46875 C 1.617188 -0.875 1.421875 -1.515625 1.421875 -2.390625 L 1.421875 -5.390625 L 0.421875 -5.390625 C 0.410156 -5.523438 0.40625 -5.65625 0.40625 -5.78125 L 0.40625 -6.8125 C 0.40625 -6.882812 0.410156 -6.921875 0.421875 -6.921875 L 1.421875 -6.921875 L 1.421875 -8.8125 L 3.046875 -8.8125 L 3.046875 -6.921875 L 4.859375 -6.921875 L 4.859375 -5.390625 L 3.046875 -5.390625 L 3.046875 -2.6875 C 3.046875 -2 3.234375 -1.609375 3.609375 -1.515625 C 3.734375 -1.472656 3.878906 -1.453125 4.046875 -1.453125 Z M 4.046875 -1.453125 "/></g></g></g><g fill="#F5C542" fill-opacity="1"><g transform="translate(47.425111, 14.771561)"><g><path d="M 3.984375 -3.421875 C 3.847656 -3.410156 3.703125 -3.40625 3.546875 -3.40625 C 3.398438 -3.40625 3.179688 -3.414062 2.890625 -3.4375 L 2.890625 0 L 1.140625 0 L 1.140625 -8.84375 C 1.753906 -8.925781 2.507812 -8.96875 3.40625 -8.96875 C 4.632812 -8.96875 5.550781 -8.738281 6.15625 -8.28125 C 6.757812 -7.832031 7.0625 -7.132812 7.0625 -6.1875 C 7.0625 -5.457031 6.785156 -4.832031 6.234375 -4.3125 C 6.046875 -4.144531 5.835938 -4 5.609375 -3.875 L 6.953125 -1.03125 C 7.222656 -0.445312 7.425781 -0.0976562 7.5625 0.015625 L 7.53125 0.046875 C 7.101562 -0.0234375 6.429688 -0.0234375 5.515625 0.046875 Z M 3.53125 -7.40625 C 3.3125 -7.40625 3.097656 -7.394531 2.890625 -7.375 L 2.890625 -4.84375 C 3.109375 -4.8125 3.363281 -4.796875 3.65625 -4.796875 C 3.945312 -4.796875 4.191406 -4.820312 4.390625 -4.875 C 4.585938 -4.925781 4.757812 -5.003906 4.90625 -5.109375 C 5.21875 -5.335938 5.375 -5.6875 5.375 -6.15625 C 5.375 -6.625 5.207031 -6.953125 4.875 -7.140625 C 4.570312 -7.316406 4.125 -7.40625 3.53125 -7.40625 Z M 3.53125 -7.40625 "/></g></g></g><g fill="#F5C542" fill-opacity="1"><g transform="translate(55.307897, 14.771561)"><g><path d="M 5.109375 -0.609375 C 4.546875 -0.140625 3.929688 0.09375 3.265625 0.09375 C 2.554688 0.09375 2 -0.144531 1.59375 -0.625 C 1.195312 -1.09375 1 -1.734375 1 -2.546875 L 1 -5.171875 C 1 -6.054688 0.976562 -6.5625 0.9375 -6.6875 C 0.90625 -6.820312 0.878906 -6.90625 0.859375 -6.9375 C 1.066406 -6.914062 1.28125 -6.90625 1.5 -6.90625 L 2.046875 -6.90625 C 2.191406 -6.90625 2.382812 -6.914062 2.625 -6.9375 L 2.625 -3.109375 C 2.625 -2.191406 2.867188 -1.660156 3.359375 -1.515625 C 3.515625 -1.472656 3.679688 -1.453125 3.859375 -1.453125 C 4.378906 -1.453125 4.796875 -1.644531 5.109375 -2.03125 L 5.109375 -6.90625 L 6.75 -6.90625 L 6.75 -0.84375 C 6.75 -0.457031 6.769531 -0.175781 6.8125 0 L 5.109375 0 Z M 5.109375 -0.609375 "/></g></g></g><g fill="#F5C542" fill-opacity="1"><g transform="translate(63.190683, 14.771561)"><g><path d="M 3.296875 0.09375 C 2.054688 0.09375 1.117188 -0.128906 0.484375 -0.578125 C 0.492188 -0.710938 0.507812 -0.863281 0.53125 -1.03125 L 0.59375 -1.515625 C 0.625 -1.828125 0.644531 -2.019531 0.65625 -2.09375 C 0.664062 -2.164062 0.671875 -2.207031 0.671875 -2.21875 C 0.679688 -2.226562 0.71875 -2.191406 0.78125 -2.109375 C 0.84375 -2.035156 0.96875 -1.941406 1.15625 -1.828125 C 1.34375 -1.722656 1.554688 -1.628906 1.796875 -1.546875 C 2.328125 -1.359375 2.875 -1.265625 3.4375 -1.265625 C 4.195312 -1.265625 4.578125 -1.519531 4.578125 -2.03125 C 4.578125 -2.195312 4.503906 -2.316406 4.359375 -2.390625 C 4.097656 -2.523438 3.710938 -2.625 3.203125 -2.6875 C 2.703125 -2.757812 2.289062 -2.859375 1.96875 -2.984375 C 1.65625 -3.117188 1.394531 -3.28125 1.1875 -3.46875 C 0.8125 -3.820312 0.625 -4.28125 0.625 -4.84375 C 0.625 -5.53125 0.890625 -6.070312 1.421875 -6.46875 C 1.941406 -6.851562 2.664062 -7.046875 3.59375 -7.046875 C 4.507812 -7.046875 5.296875 -6.785156 5.953125 -6.265625 C 5.921875 -6.148438 5.882812 -6.039062 5.84375 -5.9375 C 5.738281 -5.644531 5.664062 -5.4375 5.625 -5.3125 L 5.46875 -4.921875 C 5.457031 -4.878906 5.453125 -4.859375 5.453125 -4.859375 C 5.441406 -4.859375 5.40625 -4.90625 5.34375 -5 C 5.0625 -5.320312 4.628906 -5.535156 4.046875 -5.640625 C 3.867188 -5.671875 3.6875 -5.6875 3.5 -5.6875 C 2.6875 -5.6875 2.28125 -5.445312 2.28125 -4.96875 C 2.28125 -4.789062 2.367188 -4.660156 2.546875 -4.578125 C 2.859375 -4.410156 3.285156 -4.285156 3.828125 -4.203125 C 4.367188 -4.128906 4.78125 -4.023438 5.0625 -3.890625 C 5.34375 -3.753906 5.570312 -3.59375 5.75 -3.40625 C 6.0625 -3.0625 6.21875 -2.601562 6.21875 -2.03125 C 6.21875 -1.40625 5.972656 -0.898438 5.484375 -0.515625 C 4.960938 -0.109375 4.234375 0.09375 3.296875 0.09375 Z M 3.296875 0.09375 "/></g></g></g><g clip-path="url(#50c9ac99fb)"><g clip-path="url(#a75387b043)"><g clip-path="url(#dcfea15986)"><path fill="#F5C542" d="M 70.851562 4.851562 L 74.511719 3.050781 L 74.027344 9.394531 L 76.171875 8.339844 L 74.269531 20.871094 L 73.609375 12.203125 L 71.332031 13.464844 Z M 70.851562 4.851562 " fill-opacity="1" fill-rule="nonzero"/></g></g></g><g clip-path="url(#8cb392d869)"><g clip-path="url(#90c32aeecd)"><g clip-path="url(#5d98ae65aa)"><path fill="#e7d919" d="M 70.851562 4.851562 L 71.484375 4.542969 L 71.332031 13.464844 Z M 74.269531 20.871094 L 74.050781 11.984375 L 73.609375 12.203125 Z M 74.269531 20.871094 " fill-opacity="1" fill-rule="nonzero"/></g></g></g><g clip-path="url(#79f78dabfc)"><path fill="#E94560" d="M 15.722656 7.691406 C 15.773438 7.738281 15.800781 7.765625 15.847656 7.816406 C 15.800781 7.863281 15.773438 7.890625 15.722656 7.941406 L 13.792969 7.941406 C 13.742188 7.890625 13.714844 7.863281 13.667969 7.816406 C 13.714844 7.765625 13.742188 7.738281 13.792969 7.691406 Z M 16.550781 5.082031 C 16.488281 5.082031 16.433594 5.03125 16.433594 4.964844 L 16.339844 4.964844 C 16.339844 5.03125 16.289062 5.082031 16.222656 5.082031 C 16.160156 5.082031 16.105469 5.03125 16.105469 4.964844 L 16.015625 4.964844 C 16.015625 5.03125 15.960938 5.082031 15.898438 5.082031 C 15.832031 5.082031 15.78125 5.03125 15.78125 4.964844 L 15.6875 4.964844 C 15.6875 5.03125 15.632812 5.082031 15.570312 5.082031 C 15.503906 5.082031 15.453125 5.03125 15.453125 4.964844 L 15.355469 4.964844 C 15.355469 5.296875 15.085938 5.5625 14.757812 5.5625 C 14.429688 5.5625 14.160156 5.296875 14.160156 4.964844 L 14.0625 4.964844 C 14.0625 5.03125 14.011719 5.082031 13.945312 5.082031 C 13.882812 5.082031 13.828125 5.03125 13.828125 4.964844 L 13.734375 4.964844 C 13.734375 5.03125 13.683594 5.082031 13.617188 5.082031 C 13.554688 5.082031 13.5 5.03125 13.5 4.964844 L 13.410156 4.964844 C 13.410156 5.03125 13.355469 5.082031 13.292969 5.082031 C 13.226562 5.082031 13.175781 5.03125 13.175781 4.964844 L 13.082031 4.964844 C 13.082031 5.03125 13.03125 5.082031 12.964844 5.082031 C 12.902344 5.082031 12.847656 5.03125 12.847656 4.96875 C 12.695312 4.988281 12.578125 5.117188 12.578125 5.277344 L 12.578125 7.21875 C 12.90625 7.21875 13.175781 7.484375 13.175781 7.816406 C 13.175781 8.144531 12.90625 8.410156 12.578125 8.410156 L 12.578125 14.640625 C 12.578125 14.800781 12.695312 14.929688 12.847656 14.949219 C 12.847656 14.886719 12.902344 14.835938 12.964844 14.835938 C 13.03125 14.835938 13.082031 14.886719 13.082031 14.953125 L 13.175781 14.953125 C 13.175781 14.886719 13.226562 14.835938 13.292969 14.835938 C 13.355469 14.835938 13.410156 14.886719 13.410156 14.953125 L 13.5 14.953125 C 13.5 14.886719 13.554688 14.835938 13.617188 14.835938 C 13.683594 14.835938 13.734375 14.886719 13.734375 14.953125 L 13.828125 14.953125 C 13.828125 14.886719 13.882812 14.835938 13.945312 14.835938 C 14.011719 14.835938 14.0625 14.886719 14.0625 14.953125 L 14.160156 14.953125 C 14.160156 14.625 14.429688 14.355469 14.757812 14.355469 C 15.085938 14.355469 15.355469 14.625 15.355469 14.953125 L 15.453125 14.953125 C 15.453125 14.886719 15.503906 14.835938 15.570312 14.835938 C 15.632812 14.835938 15.6875 14.886719 15.6875 14.953125 L 15.78125 14.953125 C 15.78125 14.886719 15.832031 14.835938 15.898438 14.835938 C 15.960938 14.835938 16.015625 14.886719 16.015625 14.953125 L 16.105469 14.953125 C 16.105469 14.886719 16.160156 14.835938 16.222656 14.835938 C 16.289062 14.835938 16.339844 14.886719 16.339844 14.953125 L 16.433594 14.953125 C 16.433594 14.886719 16.488281 14.835938 16.550781 14.835938 C 16.613281 14.835938 16.667969 14.886719 16.667969 14.949219 C 16.820312 14.929688 16.9375 14.800781 16.9375 14.640625 L 16.9375 8.410156 C 16.609375 8.410156 16.339844 8.144531 16.339844 7.816406 C 16.339844 7.484375 16.609375 7.21875 16.9375 7.21875 L 16.9375 5.277344 C 16.9375 5.117188 16.820312 4.988281 16.667969 4.96875 C 16.667969 5.03125 16.613281 5.082031 16.550781 5.082031 " fill-opacity="1" fill-rule="nonzero"/></g></svg>